<svg xmlns="http://www.w3.org/2000/svg" xmlns:xlink="http://www.w3.org/1999/xlink" width="32px" height="32px" viewBox="0 0 32 32" version="1.1">
<g>
<path style=" stroke:none;fill-rule:nonzero;fill:white;fill-opacity:1;" d="M 18.828125 16 L 31.414062 3.417969 C 31.789062 3.042969 32 2.53125 32 2 C 32 1.472656 31.789062 0.960938 31.414062 0.585938 C 31.039062 0.210938 30.53125 0 30 0 C 29.46875 0 28.960938 0.210938 28.582031 0.585938 L 16 13.171875 L 3.417969 0.585938 C 3.039062 0.210938 2.53125 0 2 0 C 1.46875 0 0.960938 0.210938 0.585938 0.585938 C 0.210938 0.960938 0 1.472656 0 2 C 0 2.53125 0.210938 3.042969 0.585938 3.417969 L 13.171875 16 L 0.585938 28.582031 C -0.195312 29.367188 -0.195312 30.632812 0.585938 31.414062 C 1.367188 32.195312 2.636719 32.195312 3.417969 31.414062 L 16 18.828125 L 28.582031 31.414062 C 28.976562 31.804688 29.488281 32 30 32 C 30.511719 32 31.023438 31.804688 31.414062 31.414062 C 31.789062 31.039062 32 30.527344 32 30 C 32 29.46875 31.789062 28.957031 31.414062 28.582031 Z M 18.828125 16 "/>
</g>
</svg>
